#!OML:ASF F:\VICON\USERDATA\INSTALL\rory3\rory3.ASF
:FULLY-SPECIFIED
:DEGREES
66
root 0.591661 18.914 -0.887245 5.32155 -3.65312 -8.4102
lowerback 12.5781 1.67593 7.36546
upperback 1.07851 3.28658 0.677179
thorax -5.54278 1.4455 -3.988
lowerneck -8.5516 -0.797304 -0.448613
upperneck -6.79507 -0.981578 1.24702
head -0.67725 -0.480221 0.433888
rclavicle 3.67752e-015 7.95139e-016
rhumerus -31.8535 24.871 -88.3859
rradius 107.234
rwrist -1.6778
rhand -43.3501 38.5146
rfingers 7.12502
rthumb -16.1955 9.17113
lclavicle 3.67752e-015 7.95139e-016
lhumerus -60.3558 -2.63338 89.4858
lradius 103.666
lwrist 26.3556
lhand -37.5986 9.61126
lfingers 7.12502
lthumb -10.6521 39.3213
rfemur 22.8568 8.48253 36.3498
rtibia 29.8369
rfoot 33.2871 -4.53936
rtoes 16.0882
lfemur -35.8847 -10.3544 -3.96925
ltibia 25.4138
lfoot 10.7196 3.04471
ltoes -17.1301
67
root 0.579213 18.906 -0.35992 5.31815 -3.21899 -8.50952
lowerback 12.3811 1.55213 7.27044
upperback 1.24127 3.08325 0.66587
thorax -5.28821 1.36277 -3.9011
lowerneck -8.87859 -0.840071 -0.626029
upperneck -6.7881 -1.01222 1.58801
head -0.620186 -0.49044 0.565752
rclavicle -5.06901e-015 -1.86858e-014
rhumerus -32.5676 24.482 -88.5732
rradius 106.062
rwrist -1.85738
rhand -44.1662 38.4625
rfingers 7.12502
rthumb -16.9812 9.18478
lclavicle -5.06901e-015 -1.86858e-014
lhumerus -59.0623 -2.76852 89.1474
lradius 103.428
lwrist 26.5219
lhand -37.5043 10.2364
lfingers 7.12502
lthumb -10.5611 39.9511
rfemur 21.2646 7.69766 36.4526
rtibia 34.3002
rfoot 33.8004 -5.70316
rtoes 15.4681
lfemur -34.7964 -10.1387 -4.36485
ltibia 23.4244
lfoot 10.3857 4.80979
ltoes -17.9407
68
root 0.576644 18.8746 0.172539 5.21107 -2.67022 -8.34558
lowerback 12.225 1.37941 7.04355
upperback 1.42778 2.79519 0.554275
thorax -5.04195 1.23986 -3.83593
lowerneck -9.11334 -0.867225 -0.519912
upperneck -6.75432 -1.05474 1.66542
head -0.572296 -0.512933 0.570086
rclavicle 9.0447e-015 3.97569e-015
rhumerus -33.5391 23.8255 -88.8288
rradius 104.946
rwrist -2.33176
rhand -43.8409 37.3914
rfingers 7.12502
rthumb -16.668 8.08701
lclavicle 9.0447e-015 3.97569e-015
lhumerus -57.7765 -3.08913 88.7815
lradius 103.363
lwrist 26.6722
lhand -37.5322 11.3218
lfingers 7.12502
lthumb -10.588 41.035
rfemur 19.6009 6.75659 36.2261
rtibia 38.9714
rfoot 33.5429 -6.50432
rtoes 13.8041
lfemur -33.8267 -9.73495 -5.33844
ltibia 21.9712
lfoot 9.68397 5.5489
ltoes -21.6264
69
root 0.575852 18.8184 0.708354 4.74217 -1.68806 -8.04023
lowerback 12.4053 1.04112 6.80787
upperback 1.67537 2.31353 0.446609
thorax -4.93946 1.01676 -3.74491
lowerneck -9.12218 -0.885186 -0.771973
upperneck -7.00753 -1.04154 2.04011
head -0.645297 -0.501306 0.729041
rclavicle 1.98785e-016 -1.19271e-015
rhumerus -34.3473 23.1778 -88.8886
rradius 103.355
rwrist -3.04131
rhand -42.5486 35.6822
rfingers 7.12502
rthumb -15.4236 6.2776
lclavicle 1.98785e-016 -1.19271e-015
lhumerus -56.2384 -3.51653 88.5554
lradius 103.051
lwrist 27.0347
lhand -38.5549 12.496
lfingers 7.12502
lthumb -11.5744 42.1563
rfemur 18.079 5.38124 35.9661
rtibia 43.8687
rfoot 33.805 -7.62096
rtoes 12.9041
lfemur -32.677 -9.27142 -6.80468
ltibia 21.0686
lfoot 9.63862 5.72658
ltoes -25.4188
70
root 0.574063 18.7507 1.24655 4.16197 -1.03535 -7.39069
lowerback 12.7313 0.799917 6.18888
upperback 1.84283 1.91499 0.198992
thorax -4.99911 0.832022 -3.60279
lowerneck -8.88287 -0.841826 -1.11399
upperneck -7.25343 -0.931287 2.64792
head -0.756352 -0.440968 0.980666
rclavicle 1.799e-014 -5.56597e-015
rhumerus -35.1418 22.5404 -89.0586
rradius 101.348
rwrist -3.65348
rhand -41.9968 34.843
rfingers 7.12502
rthumb -14.8921 5.39827
lclavicle 1.799e-014 -5.56597e-015
lhumerus -54.706 -4.13714 88.1643
lradius 102.655
lwrist 27.5774
lhand -38.4538 12.8039
lfingers 7.12502
lthumb -11.4769 42.4698
rfemur 16.507 4.1758 35.2334
rtibia 48.9946
rfoot 34.3814 -8.17455
rtoes 14.5749
lfemur -31.0577 -8.35986 -8.80785
ltibia 20.2633
lfoot 9.61984 6.91894
ltoes -23.4776
